<svg width="56" height="46" viewBox="0 0 56 46" fill="none" xmlns="http://www.w3.org/2000/svg">
<path d="M24.087 0.199997H49.367L55.063 8.776V20.104L49.239 26.056H31.831V45H24.087V0.199997ZM31.831 7.432V21.064L35.415 18.952H46.103L47.319 17.736V10.248L45.463 7.432H31.831Z" fill="white"/>
<path d="M31.849 0.199997H5.161L1.513 5.384V12.232L7.785 18.76H7.465L0.936996 28.36V41.288L6.953 45H31.849V0.199997ZM24.105 7.368V18.76H17.769L9.321 9.864V7.368H24.105ZM24.105 25.928V37.768H8.617V29.64L11.305 25.928H24.105Z" fill="white"/>
<rect x="48.2106" y="39" width="4.47168" height="4.47168" transform="rotate(45.8883 48.2106 39)" fill="#FD4F4F"/>
</svg>
