<svg width="66" height="50" viewBox="0 0 66 50" fill="none" xmlns="http://www.w3.org/2000/svg">
    <path
        d="M35.84 45V3.84H14.6C12.24 3.84 10.2 4.26 8.48 5.1C6.76 5.9 5.44 7.04 4.52 8.52C3.56 10 3.08 11.76 3.08 13.8C3.08 15.36 3.36 16.8 3.92 18.12C4.48 19.44 5.26 20.54 6.26 21.42C7.26 22.3 8.4 22.96 9.68 23.4V23.64C8.24 23.96 6.94 24.54 5.78 25.38C4.62 26.22 3.7 27.34 3.02 28.74C2.3 30.1 1.94 31.78 1.94 33.78C1.94 36.46 2.5 38.62 3.62 40.26C4.74 41.9 6.24 43.1 8.12 43.86C10 44.62 12.16 45 14.6 45H35.84ZM30.14 40.08H14.66C12.62 40.08 10.96 39.56 9.68 38.52C8.4 37.44 7.76 35.66 7.76 33.18C7.76 31.66 8.04 30.4 8.6 29.4C9.16 28.36 9.98 27.6 11.06 27.12C12.14 26.6 13.5 26.34 15.14 26.34H30.14V40.08ZM30.14 21.48H15.68C14.32 21.48 13.14 21.22 12.14 20.7C11.14 20.14 10.36 19.38 9.8 18.42C9.2 17.42 8.9 16.3 8.9 15.06C8.9 12.9 9.48 11.32 10.64 10.32C11.8 9.28 13.34 8.76 15.26 8.76H30.14V21.48Z"
        fill="white" />
    <path
        d="M30.16 45V3.84H50.5C53.34 3.84 55.7 4.38 57.58 5.46C59.46 6.5 60.86 7.96 61.78 9.84C62.74 11.72 63.22 13.9 63.22 16.38C63.22 18.9 62.7 21.14 61.66 23.1C60.62 25.02 59.14 26.52 57.22 27.6C55.34 28.68 53.08 29.22 50.44 29.22H35.86V45H30.16ZM35.86 24.3H50.08C52.32 24.3 54.1 23.6 55.42 22.2C56.78 20.8 57.46 18.88 57.46 16.44C57.46 14.8 57.18 13.42 56.62 12.3C56.06 11.18 55.24 10.32 54.16 9.72C53.08 9.08 51.72 8.76 50.08 8.76H35.86V24.3Z"
        fill="white" />
    <rect x="48" y="35" width="10" height="10" rx="5" fill="#F5FF00" />
</svg>