<svg width="1728" height="1027" viewBox="0 0 1728 1027" fill="none" xmlns="http://www.w3.org/2000/svg">
    <path
        d="M4.31995 725.866C4.31995 725.866 30.3037 726.626 43.417 723.511C57.5056 720.167 73.7261 714.094 85.9625 705.414C97.3544 697.334 108.856 685.761 115.08 674.294C120.294 664.687 123.413 653.542 123.393 643.172C123.373 632.794 120.213 621.399 114.95 612.051C108.859 601.229 97.3241 590.775 86.8341 583.706C76.3689 576.654 64.5019 572.401 52.1002 569.654C38.6035 566.664 8.68315 567.568 8.68315 567.568"
        stroke="white" stroke-opacity="0.17" stroke-width="2" stroke-linecap="round" class="paths-home" />
    <path
        d="M1373.84 757.283C1374.83 767.231 1382.53 780.032 1390.39 788.403C1399.29 797.89 1412.9 803.801 1426.13 809.151C1441.12 815.215 1455.74 819.501 1476.18 821.309C1507.74 824.099 1567.86 821.748 1597.75 813.636C1616.33 808.592 1630.86 801.398 1641.17 792.063C1648.83 785.116 1655.79 776.682 1657.24 767.657C1658.69 758.626 1654.54 746.386 1649.85 737.891C1644.91 728.942 1638.16 722.577 1627.64 715.788C1609.54 704.105 1574.95 689.967 1545.65 685.876C1513.32 681.361 1470.74 683.67 1441.45 693.803C1417.57 702.061 1390.52 719.547 1380.66 733.505C1375.22 741.21 1373.03 749.066 1373.84 757.283Z"
        stroke="white" stroke-opacity="0.17" stroke-width="2" stroke-linecap="round" class="paths-home" />
    <path
        d="M4.31995 789.463C4.31995 789.463 48.5416 786.005 69.4677 778.892C90.5288 771.733 112.369 760.795 130.251 746.503C147.597 732.639 165.596 713.833 175.574 695.04C184.116 678.952 189.6 660.52 189.922 643.172C190.242 625.94 185.489 606.786 177.678 591.303C169.179 574.455 154.481 558.729 138.934 547.175C121.851 534.479 99.4258 526.097 78.1509 520.516C56.0854 514.726 8.68315 513.809 8.68315 513.809"
        stroke="white" stroke-opacity="0.17" stroke-width="2" stroke-linecap="round" class="paths-home" />
    <path
        d="M1723.68 820.111C1723.68 820.111 1693.62 837.922 1675.9 844.592C1655.2 852.384 1634.7 858.321 1606.43 861.874C1563.33 867.293 1490.85 870.367 1441.45 862.74C1399.86 856.322 1353.72 841.27 1328.56 826.659C1314.04 818.226 1305.09 810.461 1297.47 798.778C1289.97 787.266 1283.51 771.291 1282.94 757.283C1282.38 743.412 1286.66 728.34 1293.83 715.15C1302.78 698.678 1320.6 682.141 1337.25 669.734C1355.03 656.487 1376.13 647.303 1398.03 639.337C1422.1 630.581 1450.78 624.225 1476.18 620.922C1499.9 617.837 1522.57 617.068 1545.65 619.085C1568.89 621.116 1593.06 625.709 1615.12 633.178C1636.4 640.383 1657.38 650.529 1675.9 662.535C1693.37 673.862 1723.68 702.445 1723.68 702.445"
        stroke="white" stroke-opacity="0.17" stroke-width="2" stroke-linecap="round" class="paths-home" />
    <path
        d="M4.31995 843.614C4.31995 843.614 60.3773 836.676 86.8341 825.83C113.987 814.699 142.644 796.404 164.985 776.891C185.283 759.163 204.365 738.882 216.693 715.788C228.321 694.007 237.678 667.527 238.477 643.172C239.266 619.113 232.403 591.275 221.927 570.555C211.407 549.752 193.9 532.091 175.367 518.686C155.209 504.107 130.048 495.53 104.201 488.739C75.0621 481.083 8.68315 477.941 8.68315 477.941"
        stroke="white" stroke-opacity="0.17" stroke-width="2" stroke-linecap="round" class="paths-home" />
    <path
        d="M1723.68 874.09C1723.68 874.09 1612.58 898.75 1554.33 901.009C1492.67 903.402 1408.98 894.437 1363.3 885.618C1337.13 880.567 1321.1 874.942 1302.51 866.833C1285.69 859.494 1269.43 851.818 1256.18 840.272C1243.59 829.305 1231.03 814.844 1224.36 800.079C1218.41 786.903 1215.09 773.26 1215.91 757.283C1216.99 736.089 1226.14 706.145 1238.33 684.666C1251.4 661.632 1272.06 642.435 1293.83 624.971C1318.55 605.138 1349.27 589.28 1380.66 574.89C1415.31 559.006 1460.23 544.067 1493.55 535.659C1519.27 529.167 1542.59 524.182 1563.01 524.529C1579.2 524.802 1589.19 525.397 1606.43 532.987C1636.88 546.396 1723.68 617.879 1723.68 617.879"
        stroke="white" stroke-opacity="0.17" stroke-width="2" stroke-linecap="round" class="paths-home" />
    <path
        d="M1723.68 413.488C1723.68 413.488 1680.27 438.724 1658.53 444.617C1638.29 450.106 1616.75 453.92 1597.75 449.414C1579.18 445.011 1558.09 432.806 1545.65 418.719C1534.87 406.523 1523.67 387.948 1524.4 373.454C1525.13 359.034 1538 343.254 1549.79 331.96C1563.9 318.434 1586.82 308.96 1606.43 302.299C1625.97 295.664 1647.33 291.997 1667.22 291.997C1686.38 291.995 1723.68 301.562 1723.68 301.562"
        stroke="white" stroke-opacity="0.17" stroke-width="2" stroke-linecap="round" class="paths-home" />
    <path
        d="M4.31995 905.65C4.31995 905.65 72.3967 892.287 104.201 875.684C137.691 858.201 172.695 829.419 199.719 801.235C224.344 775.549 248.025 745.959 261.599 715.788C273.464 689.415 281.119 660.446 281.025 632.798C280.932 605.119 272.78 572.71 260.995 549.808C249.943 528.332 233.677 511.743 214.365 497.94C191.576 481.65 161.297 471.7 130.251 463.634C93.8617 454.181 8.68315 449.162 8.68315 449.162"
        stroke="white" stroke-opacity="0.17" stroke-width="2" stroke-linecap="round" class="paths-home" />
    <path
        d="M1723.68 913.061C1723.68 913.061 1635.68 927.156 1589.07 929.747C1538.97 932.53 1482.39 931.905 1432.76 927.801C1387.27 924.039 1341.14 918.527 1302.51 907.804C1270.22 898.838 1239.11 889.16 1215.68 872.396C1195.96 858.288 1177.7 840.794 1168.24 819.525C1159.01 798.785 1156.45 772.269 1158.66 746.909C1161.23 717.355 1173.28 686.176 1188.37 653.545C1207.98 611.141 1261.62 548.922 1273.48 518.686C1278.64 505.524 1280.52 497.545 1279.57 487.566C1278.62 477.575 1273.68 466.888 1267.78 458.776C1261.4 450.002 1251.46 442.921 1241.73 437.667C1231.34 432.064 1223.04 429.057 1206.99 426.949C1172.57 422.429 1088.23 434.978 1042.01 433.608C1008.43 432.615 983.548 431.496 955.176 424.942C926.749 418.374 891.088 407.755 871.617 394.202C858.779 385.266 845.436 372.421 844.034 363.08C843.134 357.083 847.272 350.663 850.975 346.363C855.067 341.612 860.369 339.276 868.341 336.77C883.551 331.99 907.539 328.594 937.809 329.993C995.714 332.67 1137.03 372.991 1189.63 378.186C1213.4 380.535 1223.8 380.767 1241.73 378.573C1261.32 376.175 1275.43 372.435 1302.51 363.064C1360.72 342.924 1508.3 264.83 1571.7 244.425C1605.03 233.699 1624.08 230.765 1649.85 228.116C1674.7 225.56 1723.63 228.222 1723.63 228.222"
        stroke="white" stroke-opacity="0.17" stroke-width="2" stroke-linecap="round" class="paths-home" />
    <path
        d="M137.89 1021.87C137.89 1021.87 122.324 997.389 121.368 985.505C120.519 974.945 123.052 967.623 129.602 954.383C146.849 919.523 230.066 835.542 260.502 790.197C279.642 761.684 292.208 741.378 302.265 715.788C311.515 692.248 317.941 666.672 320.21 643.172C322.269 621.843 321.899 601.896 317.211 580.929C311.864 557.01 301.027 527.456 286.77 508.314C273.106 489.965 255.417 478.298 234.452 467.223C208.158 453.335 173.501 445.05 138.934 437.93C99.1332 429.73 8.68323 423.849 8.68323 423.849"
        stroke="white" stroke-opacity="0.17" stroke-width="2" stroke-linecap="round" class="paths-home" />
    <path
        d="M1723.68 948.017C1723.68 948.017 1617.51 958.696 1563.01 959.834C1506.66 961.011 1444.38 959.181 1390.93 954.383C1343.97 950.17 1297.75 945.048 1259.1 934.841C1227.59 926.52 1198.23 916.732 1175.11 902.515C1156.31 890.959 1140.07 877.473 1128.38 861.02C1117.65 845.935 1109.94 827.812 1105.99 809.151C1101.91 789.868 1102.87 771.803 1105 746.909C1108.29 708.413 1133.97 637.717 1132.51 601.677C1131.62 579.849 1128.19 563.776 1118.15 549.808C1106.12 533.055 1084.91 524.888 1059.38 513.89C1017.48 495.845 933.413 483.179 885.709 467.629C851.537 456.49 826.481 448.148 798.874 434.015C771.728 420.117 737.876 402.733 721.319 383.828C710.082 370.999 701.312 354.004 700.448 342.334C699.864 334.426 703.299 327.979 707.086 321.586C711.629 313.918 717.903 307.101 727.512 300.838C743.524 290.402 773.627 279.909 798.874 274.965C826.119 269.632 849.28 270.486 885.709 271.825C947.862 274.11 1070.15 296.278 1137.53 299.513C1182.55 301.675 1213.69 302.227 1250.41 297.972C1285.99 293.85 1313.58 286.968 1354.61 275.074C1415.85 257.323 1513.04 209.326 1580.38 193.346C1632.98 180.862 1723.68 176.51 1723.68 176.51"
        stroke="white" stroke-opacity="0.17" stroke-width="2" stroke-linecap="round" class="paths-home" />
    <path
        d="M256.691 1021.87C256.691 1021.87 233.838 991.037 229.478 975.131C225.751 961.539 226.105 947.875 228.619 933.637C231.571 916.908 239.113 901.981 249.075 881.768C265.057 849.342 303.908 796.885 321.286 761.916C333.609 737.12 341.514 719.786 348.162 695.04C355.68 667.057 362.154 632.185 361.848 601.677C361.551 572.216 357.03 538.495 347.337 515.007C339.097 495.041 326.934 479.445 312.09 466.818C295.75 452.92 274.917 445.695 251.819 437.615C222.69 427.427 186.913 420.922 150.081 414.949C106.952 407.955 8.68323 400.474 8.68323 400.474"
        stroke="white" stroke-opacity="0.17" stroke-width="2" stroke-linecap="round" class="paths-home" />
    <path
        d="M1723.68 982.703C1723.68 982.703 1600.25 989.494 1536.97 989.416C1471.51 989.333 1395.21 986.965 1337.25 981.736C1292.3 977.681 1253.48 974.002 1217.96 964.757C1188.17 957.005 1160.61 947.432 1137.53 933.937C1117.74 922.372 1099.92 908.657 1086.38 892.141C1073.99 877.018 1063.97 859.204 1058.04 840.272C1052.06 821.193 1051.11 802.763 1050.82 778.031C1050.4 741.685 1064.98 672.229 1063.28 643.172C1062.46 629.036 1060.67 621.961 1056.65 612.051C1052.22 601.113 1046.53 590.676 1036.75 580.929C1022.26 566.489 1002.21 556.26 972.543 541.737C912.53 512.361 750.344 466.185 691.041 435.697C661.846 420.687 642.479 410.699 628.562 394.202C618.152 381.862 609.519 366.715 608.933 352.706C608.362 339.042 616.736 323.194 624.228 311.212C631.94 298.879 640.809 289.991 654.976 280.091C678.065 263.954 721.849 243.801 755.457 235.451C787.195 227.565 811.348 228.362 850.975 229.264C916.51 230.753 1040.93 254.496 1111.48 258.049C1159.57 260.473 1193.42 261.252 1233.05 256.896C1271.52 252.666 1301.89 245.671 1345.93 232.966C1410.36 214.381 1511.22 164.545 1580.38 146.857C1633.44 133.288 1723.68 125.598 1723.68 125.598"
        stroke="white" stroke-opacity="0.17" stroke-width="2" stroke-linecap="round" class="paths-home" />
    <path
        d="M339.94 1021.86C339.94 1021.86 313.529 992.272 306.272 975.131C299.523 959.192 295.962 939.538 296.313 923.263C296.63 908.609 300.203 899.04 306.188 881.768C317.503 849.112 353.351 787.03 369.009 746.909C380.891 716.462 388.954 693.565 395.528 663.919C402.675 631.685 407.513 593.935 408.93 560.182C410.267 528.325 414.205 488.116 404.788 466.818C397.831 451.081 384.854 443.81 370.756 435.697C352.896 425.418 334.369 422.2 303.92 415.74C240.714 402.327 8.68323 377.982 8.68323 377.982"
        stroke="white" stroke-opacity="0.17" stroke-width="2" stroke-linecap="round" class="paths-home" />
    <path
        d="M1536.97 1021.26C1536.97 1021.26 1301.01 1019.03 1233.05 1009.93C1198.26 1005.28 1178.99 1000.3 1154.89 991.791C1133.03 984.071 1113.02 974.923 1094.11 962.556C1075.42 950.327 1056.41 935.615 1042.01 918.179C1028.26 901.535 1016.04 881.437 1008.88 861.02C1002.04 841.517 1000.49 823.609 999.01 798.777C996.849 762.527 1007.81 692.818 1004.1 663.92C1002.27 649.61 999.483 642.532 994.617 632.798C989.296 622.153 983.082 612.763 972.543 603.156C956.099 588.165 933.868 576.483 899.977 560.182C828.45 525.778 608.513 461.15 555.739 430.557C538.468 420.546 529.297 415.377 523.838 404.576C519.332 395.661 518.819 384.686 520.894 373.454C523.782 357.826 535.854 337.904 547.314 321.586C560.337 303.042 578.431 285.093 596.664 269.717C615.793 253.586 637.872 239.201 659.939 227.642C682.111 216.029 703.566 206.638 729.407 200.274C760.303 192.665 791.072 188.924 833.608 189.277C900.909 189.835 1020.73 217.535 1094.11 221.122C1147.56 223.736 1188.87 224.055 1233.05 217.774C1274.24 211.918 1305.71 202.251 1351.04 186.728C1415.39 164.691 1512.18 110.489 1580.38 89.34C1633.07 73.003 1723.68 60.5828 1723.68 60.5828"
        stroke="white" stroke-opacity="0.17" stroke-width="2" stroke-linecap="round" class="paths-home" />
    <path d="M1658.53 1021.27L1723.68 1020.25" stroke="white" stroke-opacity="0.17" stroke-width="2"
        stroke-linecap="round" class="paths-home" />
    <path d="M4.31995 9.94265L12.3713 5.13501" stroke="white" stroke-opacity="0.17" stroke-width="2"
        stroke-linecap="round" class="paths-home" />
    <path
        d="M412.449 1021.87C412.449 1021.87 368.803 971.163 361.584 944.011C355.384 920.691 358.477 903.395 364.526 871.394C377.801 801.163 445.763 599.513 477.588 548.055C490.067 527.878 498.57 520.905 512.322 513.501C527.158 505.515 545.288 504.104 564.422 503.909C587.828 503.672 612.956 509.68 642.573 516.677C682.673 526.151 742.613 546.155 782.489 560.182C812.759 570.83 838.616 579.445 861.607 591.303C880.642 601.12 898.777 611.867 911.759 623.806C921.817 633.056 929.398 642.848 935.206 653.546C940.487 663.271 943.554 670.085 946.068 684.666C951.289 714.941 942.42 791.927 947.417 829.9C950.764 855.328 954.109 871.75 963.577 892.141C975.048 916.845 995.146 943.587 1015.96 964.688C1038.19 987.219 1094.11 1021.74 1094.11 1021.74"
        stroke="white" stroke-opacity="0.17" stroke-width="2" stroke-linecap="round" class="paths-home" />
    <path
        d="M790.596 5.13501C790.596 5.13501 842.495 17.8197 885.709 22.0163C976.611 30.8447 1229.78 19.341 1311.2 29.5109C1344.4 33.6599 1365.93 35.1144 1380.66 45.785C1390.06 52.594 1398.69 63.398 1398.58 72.6166C1398.46 82.6632 1386.15 94.0437 1376.52 103.737C1364.24 116.107 1346.39 127.629 1328.56 137.528C1308.31 148.774 1283.08 158.959 1260.7 165.98C1239.7 172.568 1223.01 176.564 1198.31 179.238C1162.91 183.072 1117.69 183.782 1068.06 179.978C1001.18 174.851 894.545 143.566 833.608 142.526C794.78 141.863 771.277 144.863 738.09 154.476C699.399 165.685 658.784 184.416 616.522 211.056C564.193 244.043 496.024 318.546 451.537 345.808C424.499 362.377 408.49 370.006 382.071 375.949C349.424 383.29 314.533 380.574 269.186 379.175C200.21 377.048 8.68323 355.615 8.68323 355.615"
        stroke="white" stroke-opacity="0.17" stroke-width="2" stroke-linecap="round" class="paths-home" />
    <path d="M4.31995 35.497L55.0162 5.13501" stroke="white" stroke-opacity="0.17" stroke-width="2"
        stroke-linecap="round" class="paths-home" />
    <path
        d="M680.188 5.13501C680.188 5.13501 717.564 38.2493 724.612 51.8686C728.5 59.3799 729.979 65.8885 729.194 72.6166C728.364 79.744 726.369 84.3539 718.917 93.3633C686.871 132.107 465.464 292.152 399.437 325.757C372.381 339.527 360.368 340.601 338.653 344.973C314.414 349.853 294.073 351.816 260.502 352.012C199.744 352.369 4.32434 331.96 4.32434 331.96"
        stroke="white" stroke-opacity="0.17" stroke-width="2" stroke-linecap="round" class="paths-home" />
    <path
        d="M484.469 1021.86C484.469 1021.86 456.043 991.013 445.797 975.131C437.017 961.522 429.524 947.979 425.28 933.637C421.319 920.25 419.755 907.32 420.179 892.141C420.704 873.439 425.152 854.286 431.432 829.899C440.976 792.84 462.222 731.378 477.588 693.511C489.176 664.954 498.622 640.299 512.322 620.802C524.14 603.983 536.984 589.856 552.516 580.929C568.652 571.655 588.266 568.456 607.839 567.239C629.596 565.887 652.958 570.537 677.307 575.591C705.028 581.344 738.279 591.348 765.11 601.677C788.762 610.781 812.548 620.855 830.385 632.798C844.425 642.198 855.885 650.653 865.216 663.92C875.097 677.966 882.657 694.401 887.191 715.788C893.549 745.771 886.293 797.762 889.809 829.899C892.441 853.952 895.091 872.065 902.146 892.141C909.708 913.66 921.318 934.136 934.97 954.383C950.578 977.531 992.426 1021.86 992.426 1021.86"
        stroke="white" stroke-opacity="0.17" stroke-width="2" stroke-linecap="round" class="paths-home" />
    <path d="M4.31995 62.7613L100.425 5.13501" stroke="white" stroke-opacity="0.17" stroke-width="2"
        stroke-linecap="round" class="paths-home" />
    <path
        d="M604.332 5.13501C604.332 5.13501 630.395 38.759 634.595 51.8686C637.09 59.6546 637.109 65.2261 635.851 72.6166C634.22 82.1934 630.719 91.8754 622.514 103.737C605.442 128.417 558.939 167.122 522.469 197.101C482.343 230.085 428.614 271.752 390.754 291.906C364.746 305.748 345.369 311.353 321.286 317.227C296.239 323.338 271.617 325.762 243.136 327.229C208.999 328.987 168.514 327.548 130.251 324.456C90.4165 321.237 8.68323 307.751 8.68323 307.751"
        stroke="white" stroke-opacity="0.17" stroke-width="2" stroke-linecap="round" class="paths-home" />
    <path
        d="M566.513 1021.87C566.513 1021.87 511.232 952.412 499.769 923.263C492.359 904.419 491.47 889.514 491.06 871.394C490.614 851.635 494.122 830.476 498.615 809.152C503.623 785.382 511.19 758.393 521.005 735.69C530.589 713.524 542.537 690.247 556.483 674.294C569 659.973 583.553 649.055 599.156 642.24C615.086 635.282 631.731 632.87 651.256 633.467C676.572 634.242 715.665 644.756 738.09 653.549C753.269 659.502 763.667 665.532 774.666 674.294C785.457 682.89 796.312 693.192 803.592 705.414C810.761 717.452 814.275 728.42 818.224 746.909C825.339 780.211 817.559 846.759 830.542 892.141C843.818 938.55 898.221 1021.87 898.221 1021.87"
        stroke="white" stroke-opacity="0.17" stroke-width="2" stroke-linecap="round" class="paths-home" />
    <path d="M4.31995 94.086L152.227 5.13501" stroke="white" stroke-opacity="0.17" stroke-width="2"
        stroke-linecap="round" class="paths-home" />
    <path
        d="M533.508 5.13501C533.508 5.13501 550.214 21.3347 555.889 31.1207C561.311 40.4689 566.92 50.4578 567.269 62.2426C567.715 77.2458 561.999 96.4571 551.86 114.111C536.454 140.934 500.242 172.166 471.001 197.101C440.89 222.778 403.884 249.223 373.387 265.451C348.918 278.47 328.644 285.548 303.92 291.846C276.855 298.741 247.395 302.095 217.085 303.543C183.98 305.124 147.508 303.553 112.885 299.516C78.0387 295.451 8.68323 279.135 8.68323 279.135"
        stroke="white" stroke-opacity="0.17" stroke-width="2" stroke-linecap="round" class="paths-home" />
    <path
        d="M613.257 778.031C620.175 765.928 639.897 751.776 651.256 747.474C659.032 744.529 665.59 743.734 672.747 746.909C682.384 751.185 695.626 760.894 701.624 778.031C713.487 811.913 709.203 948.847 694.673 958.993C688.323 963.427 677.984 952.206 668.623 943.541C653.116 929.186 626.364 896.353 616.522 871.543C608.487 851.287 607.129 826.336 607.467 809.151C607.706 796.958 607.967 787.283 613.257 778.031Z"
        stroke="white" stroke-opacity="0.17" stroke-width="2" stroke-linecap="round" class="paths-home" />
    <path
        d="M4.31995 137.139C4.31995 137.139 65.7763 83.8006 100.646 62.2426C137.638 39.3726 220.947 5.13501 220.947 5.13501"
        stroke="white" stroke-opacity="0.17" stroke-width="2" stroke-linecap="round" class="paths-home" />
    <path
        d="M451.537 5.14014C451.537 5.14014 491.294 33.6407 498.38 51.8686C504.367 67.2659 503.857 86.3425 498.082 103.737C490.114 127.741 463.962 154.655 441.758 176.354C417.329 200.226 384.74 223.24 356.02 238.867C330.085 252.98 305.553 261.868 277.869 268.458C247.939 275.583 214.191 278.344 182.352 278.353C150.513 278.363 116.969 275.603 86.8342 268.514C58.6268 261.88 6.68958 238.596 6.68958 238.596"
        stroke="white" stroke-opacity="0.17" stroke-width="2" stroke-linecap="round" class="paths-home" />
    <path
        d="M71.8265 124.485C86.3838 109.193 103.294 96.2953 126.294 82.9893C160.388 63.267 222.633 36.9912 260.503 27.2912C287.027 20.4963 308.511 19.2228 329.97 19.9546C348.618 20.59 366.441 23.1627 382.071 29.0576C396.109 34.3531 410.814 41.7655 419.982 51.8686C427.763 60.4428 434.439 71.4856 435.83 82.9893C437.341 95.4866 433.163 110.919 426.589 124.485C417.991 142.228 399.64 161.166 382.863 176.354C364.931 192.587 343.192 206.967 321.519 217.848C299.545 228.882 275.955 236.78 251.819 241.849C226.743 247.115 199.665 249.341 173.668 248.153C147.565 246.959 117.521 242.914 95.5174 234.619C77.9263 227.989 59.4735 217.712 50.5019 207.474C44.8546 201.03 41.9256 193.881 40.7333 186.728C39.6144 180.02 40.0821 173.545 42.8188 165.98C47.2165 153.824 59.6333 137.293 71.8265 124.485Z"
        stroke="white" stroke-opacity="0.17" stroke-width="2" stroke-linecap="round" class="paths-home" />
    <path
        d="M127.596 145.232C133.714 134.974 145.084 123.67 158.492 114.111C177.538 100.533 208.476 85.0639 234.452 78.3101C259.874 71.7013 294.414 70.2828 312.603 73.3651C322.786 75.0904 329.349 77.7799 335.76 82.9894C341.964 88.0319 348.681 96.2864 350.693 103.737C352.45 110.245 351.583 117.321 349.18 124.485C345.859 134.386 338.79 145.731 328.341 155.606C311.707 171.323 278.857 191.064 251.819 198.966C224.445 206.966 187.101 207.269 164.985 202.82C150.516 199.909 137.709 194.464 130.347 186.728C124.97 181.077 121.298 173.002 120.914 165.98C120.541 159.164 123.439 152.201 127.596 145.232Z"
        stroke="white" stroke-opacity="0.17" stroke-width="2" stroke-linecap="round" class="paths-home" />
</svg>